<svg width="25" height="25" viewBox="0 0 25 25" fill="none" xmlns="http://www.w3.org/2000/svg">
<path d="M22.3438 19.6425C21.729 19.0541 21.1307 18.4488 20.5495 17.8274C20.1344 17.4059 19.781 17.1031 19.6843 17.0218C19.6669 17.0071 19.65 16.9922 19.6334 16.9765L17.76 15.2068C17.3504 14.8198 17.2999 14.1305 17.5283 13.6153C18.0023 12.5464 18.5126 10.7682 18.5129 9.18057C18.5129 4.11945 14.2544 0 9.18794 0C4.12145 0 0 4.11945 0 9.18057C0 14.2417 4.12145 18.3611 9.18794 18.3611C10.2801 18.3611 12.0835 17.9014 13.1708 17.4587C13.6682 17.2561 14.3214 17.2883 14.7156 17.6531L16.9613 19.7311C16.9768 19.7455 16.9927 19.7592 17.0089 19.7728C17.0978 19.8468 17.4212 20.1208 17.8417 20.5343C18.3496 21.0104 19.0177 21.6543 19.6583 22.3271L21.4407 24.1528L21.5275 24.2455C21.9136 24.6581 22.5647 24.6691 22.9645 24.2696L24.2853 22.9498C24.6855 22.5499 24.6746 21.898 24.2612 21.5117L24.1695 21.4261C23.6721 20.9383 23.0079 20.2904 22.3438 19.6425ZM9.18794 15.7381C5.56921 15.7381 2.62513 12.7964 2.62513 9.18057C2.62513 5.56474 5.56921 2.62302 9.18794 2.62302C12.8067 2.62302 15.7508 5.56474 15.7508 9.18057C15.7508 12.7964 12.8067 15.7381 9.18794 15.7381Z" fill="#23405E"/>
</svg>
